<svg width="28" height="29" viewBox="0 0 28 29" fill="none" xmlns="http://www.w3.org/2000/svg">
<path d="M5.73828 14.4492C5.73828 13.7559 6.31445 13.1895 6.99805 13.1895H12.7402V7.44727C12.7402 6.76367 13.3066 6.1875 14 6.1875C14.6934 6.1875 15.2598 6.76367 15.2598 7.44727V13.1895H21.002C21.6953 13.1895 22.2617 13.7559 22.2617 14.4492C22.2617 15.1426 21.6953 15.709 21.002 15.709H15.2598V21.4512C15.2598 22.1445 14.6934 22.7109 14 22.7109C13.3066 22.7109 12.7402 22.1445 12.7402 21.4512V15.709H6.99805C6.31445 15.709 5.73828 15.1426 5.73828 14.4492Z" fill="#0A84FF" style="fill:#0A84FF;fill:color(display-p3 0.0392 0.5176 1.0000);fill-opacity:1;"/>
</svg>
