<svg width="28" height="29" viewBox="0 0 28 29" fill="none" xmlns="http://www.w3.org/2000/svg">
<path d="M13.1113 24.9473C12.4766 24.9473 11.9883 24.5664 11.8613 23.9512L11.373 21.9297C11.0703 21.832 10.7871 21.7148 10.5234 21.5879L8.75586 22.6719C8.22852 23.0039 7.61328 22.9453 7.17383 22.5059L5.92383 21.2656C5.48438 20.8262 5.42578 20.1816 5.77734 19.6543L6.85156 17.9062C6.72461 17.6426 6.60742 17.3594 6.51953 17.0859L4.47852 16.5977C3.86328 16.4609 3.49219 15.9824 3.49219 15.3477V13.5996C3.49219 12.9746 3.86328 12.4961 4.47852 12.3594L6.5 11.8711C6.59766 11.5586 6.72461 11.2754 6.83203 11.041L5.74805 9.25391C5.41602 8.7168 5.45508 8.10156 5.91406 7.66211L7.17383 6.42188C7.62305 6.00195 8.17969 5.93359 8.7168 6.22656L10.5137 7.33008C10.7773 7.20312 11.0703 7.08594 11.373 6.97852L11.8613 4.94727C11.9883 4.33203 12.4766 3.95117 13.1113 3.95117H14.8887C15.5234 3.95117 16.002 4.33203 16.1387 4.94727L16.6172 6.99805C16.9297 7.10547 17.2129 7.21289 17.4668 7.33984L19.2832 6.22656C19.8105 5.93359 20.3672 6.01172 20.8066 6.41211L22.0762 7.66211C22.5352 8.10156 22.584 8.7168 22.2422 9.25391L21.1582 11.041C21.2656 11.2754 21.3926 11.5586 21.4902 11.8711L23.5117 12.3594C24.127 12.4961 24.498 12.9746 24.498 13.5996V15.3477C24.498 15.9824 24.127 16.4609 23.5117 16.5977L21.4707 17.0859C21.3828 17.3594 21.2656 17.6426 21.1484 17.9062L22.2227 19.6543C22.5645 20.1816 22.5059 20.8262 22.0664 21.2656L20.8164 22.5059C20.377 22.9453 19.7617 23.0039 19.2344 22.6719L17.4668 21.5879C17.2129 21.7148 16.9199 21.832 16.6172 21.9297L16.1387 23.9512C16.002 24.5664 15.5234 24.9473 14.8887 24.9473H13.1113ZM14 17.8477C15.8652 17.8477 17.3887 16.3145 17.3887 14.4395C17.3887 12.584 15.8652 11.0605 14 11.0605C12.1348 11.0605 10.6016 12.584 10.6016 14.4395C10.6016 16.3145 12.1348 17.8477 14 17.8477Z" fill="#8E8E93" style="fill:#8E8E93;fill:color(display-p3 0.5569 0.5569 0.5765);fill-opacity:1;"/>
</svg>
