<svg width="18" height="17" viewBox="0 0 18 17" fill="none" xmlns="http://www.w3.org/2000/svg">
<path d="M0.738281 8.44922C0.738281 7.75586 1.31445 7.18945 1.99805 7.18945H7.74023V1.44727C7.74023 0.763672 8.30664 0.1875 9 0.1875C9.69336 0.1875 10.2598 0.763672 10.2598 1.44727V7.18945H16.002C16.6953 7.18945 17.2617 7.75586 17.2617 8.44922C17.2617 9.14258 16.6953 9.70898 16.002 9.70898H10.2598V15.4512C10.2598 16.1445 9.69336 16.7109 9 16.7109C8.30664 16.7109 7.74023 16.1445 7.74023 15.4512V9.70898H1.99805C1.31445 9.70898 0.738281 9.14258 0.738281 8.44922Z" fill="#0A84FF"/>
</svg>
