<svg width="14" height="22" viewBox="0 0 14 22" fill="none" xmlns="http://www.w3.org/2000/svg">
    <path
        d="M1.43359 21.8672C0.574219 21.8672 0.0175781 21.2617 0.0175781 20.3047V3.20508C0.0175781 1.21289 1.0918 0.128906 3.06445 0.128906H10.9355C12.9082 0.128906 13.9824 1.21289 13.9824 3.20508V20.3047C13.9824 21.2617 13.4355 21.8672 12.5664 21.8672C11.9902 21.8672 11.6387 21.584 10.8184 20.793L7.08789 17.082C7.03906 17.043 6.96094 17.043 6.91211 17.082L3.18164 20.793C2.37109 21.584 2 21.8672 1.43359 21.8672ZM2.45898 18.293L6.26758 14.5918C6.74609 14.1328 7.25391 14.1328 7.73242 14.5918L11.541 18.293C11.6777 18.4102 11.8242 18.3711 11.8242 18.1855V3.38086C11.8242 2.64844 11.4629 2.29688 10.7305 2.29688H3.26953C2.53711 2.29688 2.17578 2.64844 2.17578 3.38086V18.1855C2.17578 18.3711 2.33203 18.4102 2.45898 18.293Z"
        fill="white" style="fill:white;fill-opacity:1;" />
</svg>