<svg width="28" height="29" viewBox="0 0 28 29" fill="none" xmlns="http://www.w3.org/2000/svg">
<path d="M14 24.6348C8.41406 24.6348 3.81445 20.0352 3.81445 14.4492C3.81445 8.87305 8.41406 4.26367 13.9902 4.26367C19.5762 4.26367 24.1855 8.87305 24.1855 14.4492C24.1855 20.0352 19.5859 24.6348 14 24.6348ZM10.8457 18.6094C11.1484 18.6094 11.3926 18.5117 11.5879 18.3164L14 15.8945L16.4219 18.3164C16.6074 18.5117 16.8613 18.6094 17.1543 18.6094C17.7207 18.6094 18.1602 18.1699 18.1602 17.5938C18.1602 17.3301 18.0625 17.0762 17.8672 16.8906L15.4355 14.4688L17.877 12.0273C18.082 11.8223 18.1699 11.5879 18.1699 11.3145C18.1699 10.7578 17.7305 10.3184 17.1738 10.3184C16.8809 10.3184 16.6562 10.4062 16.4512 10.6113L14 13.043L11.5684 10.6211C11.373 10.4258 11.1484 10.3281 10.8457 10.3281C10.2891 10.3281 9.84961 10.7676 9.84961 11.334C9.84961 11.5879 9.95703 11.8418 10.1426 12.0273L12.5742 14.4688L10.1426 16.9004C9.95703 17.0859 9.84961 17.3398 9.84961 17.5938C9.84961 18.1699 10.2891 18.6094 10.8457 18.6094Z" fill="#8E8E93"/>
</svg>
