<svg width="22" height="22" viewBox="0 0 22 22" fill="none" xmlns="http://www.w3.org/2000/svg">
    <path
        d="M10.1113 21.9473C9.47656 21.9473 8.98828 21.5664 8.86133 20.9512L8.37305 18.9297C8.07031 18.832 7.78711 18.7148 7.52344 18.5879L5.75586 19.6719C5.22852 20.0039 4.61328 19.9453 4.17383 19.5059L2.92383 18.2656C2.48438 17.8262 2.42578 17.1816 2.77734 16.6543L3.85156 14.9062C3.72461 14.6426 3.60742 14.3594 3.51953 14.0859L1.47852 13.5977C0.863281 13.4609 0.492188 12.9824 0.492188 12.3477V10.5996C0.492188 9.97461 0.863281 9.49609 1.47852 9.35938L3.5 8.87109C3.59766 8.55859 3.72461 8.27539 3.83203 8.04102L2.74805 6.25391C2.41602 5.7168 2.45508 5.10156 2.91406 4.66211L4.17383 3.42188C4.62305 3.00195 5.17969 2.93359 5.7168 3.22656L7.51367 4.33008C7.77734 4.20312 8.07031 4.08594 8.37305 3.97852L8.86133 1.94727C8.98828 1.33203 9.47656 0.951172 10.1113 0.951172H11.8887C12.5234 0.951172 13.002 1.33203 13.1387 1.94727L13.6172 3.99805C13.9297 4.10547 14.2129 4.21289 14.4668 4.33984L16.2832 3.22656C16.8105 2.93359 17.3672 3.01172 17.8066 3.41211L19.0762 4.66211C19.5352 5.10156 19.584 5.7168 19.2422 6.25391L18.1582 8.04102C18.2656 8.27539 18.3926 8.55859 18.4902 8.87109L20.5117 9.35938C21.127 9.49609 21.498 9.97461 21.498 10.5996V12.3477C21.498 12.9824 21.127 13.4609 20.5117 13.5977L18.4707 14.0859C18.3828 14.3594 18.2656 14.6426 18.1484 14.9062L19.2227 16.6543C19.5645 17.1816 19.5059 17.8262 19.0664 18.2656L17.8164 19.5059C17.377 19.9453 16.7617 20.0039 16.2344 19.6719L14.4668 18.5879C14.2129 18.7148 13.9199 18.832 13.6172 18.9297L13.1387 20.9512C13.002 21.5664 12.5234 21.9473 11.8887 21.9473H10.1113ZM11 14.8477C12.8652 14.8477 14.3887 13.3145 14.3887 11.4395C14.3887 9.58398 12.8652 8.06055 11 8.06055C9.13477 8.06055 7.60156 9.58398 7.60156 11.4395C7.60156 13.3145 9.13477 14.8477 11 14.8477Z"
        fill="#8E8E93" />
</svg>