<svg width="28" height="29" viewBox="0 0 28 29" fill="none" xmlns="http://www.w3.org/2000/svg">
<path d="M14 16.9688C13.4434 16.9688 12.9941 16.5195 12.9941 15.9922V6.29492L13.082 4.84961L12.5156 5.58203L11.2266 6.94922C11.0605 7.14453 10.8066 7.24219 10.5625 7.24219C10.084 7.24219 9.68359 6.89062 9.68359 6.39258C9.68359 6.13867 9.78125 5.94336 9.9668 5.76758L13.2285 2.63281C13.4824 2.37891 13.7363 2.28125 14 2.28125C14.2637 2.28125 14.5078 2.37891 14.7715 2.63281L18.0332 5.76758C18.209 5.94336 18.3066 6.13867 18.3066 6.39258C18.3066 6.89062 17.9062 7.24219 17.4277 7.24219C17.1836 7.24219 16.9395 7.14453 16.7637 6.94922L15.4844 5.58203L14.918 4.84961L14.9961 6.29492V15.9922C14.9961 16.5195 14.5566 16.9688 14 16.9688ZM8.36523 24.8594C6.20703 24.8594 5.05469 23.7266 5.05469 21.5781V12.0664C5.05469 9.92773 6.20703 8.78516 8.36523 8.78516H11.1094V10.9629H8.55078C7.69141 10.9629 7.23242 11.4023 7.23242 12.291V21.3535C7.23242 22.252 7.69141 22.6816 8.55078 22.6816H19.4492C20.2988 22.6816 20.7676 22.252 20.7676 21.3535V12.291C20.7676 11.4023 20.2988 10.9629 19.4492 10.9629H16.8809V8.78516H19.6348C21.8027 8.78516 22.9453 9.92773 22.9453 12.0664V21.5781C22.9453 23.7168 21.8027 24.8594 19.6348 24.8594H8.36523Z" fill="#8E8E93"/>
</svg>
